<svg xmlns="http://www.w3.org/2000/svg" viewBox="0 0 23.1 21.77"><defs><style>.cls-1{font-size:15px;fill:#76929c;font-family:AppleSDGothicNeoB00;}.cls-2{fill:#748f99;}</style></defs><g id="레이어_2" data-name="레이어 2"><g id="레이어_1-2" data-name="레이어 1"><text class="cls-1" transform="translate(2.51 18.26) scale(0.92 1)">GY</text><path class="cls-2" d="M2.49,7.05C1.69,6.22.86,5.41,0,4.63c.28-.28.58-.54.89-.8a1.28,1.28,0,0,1,.88-.35,1.12,1.12,0,0,1,.75.45,1.1,1.1,0,0,1,.28.81,1,1,0,0,1-.41.68L2,5.77c.3.31.59.63.88,1Q2.67,6.87,2.49,7.05ZM1.65,5.43,2,5.13a.55.55,0,0,0,.24-.38.61.61,0,0,0-.18-.43A.65.65,0,0,0,1.63,4a.61.61,0,0,0-.46.18l-.38.33C1.08,4.84,1.37,5.13,1.65,5.43Z"/><path class="cls-2" d="M5.3,5.09a1.23,1.23,0,0,1-1,.08,2.38,2.38,0,0,1-1-.87l-.06-.09A1.73,1.73,0,0,1,2.76,3a1.29,1.29,0,0,1,.73-1A1.4,1.4,0,0,1,4.71,1.9a1.8,1.8,0,0,1,.94,1l0,.1a2,2,0,0,1,.22,1.29A1.14,1.14,0,0,1,5.3,5.09Zm-.22-.42a.63.63,0,0,0,.34-.53,1.68,1.68,0,0,0-.23-.85l-.08-.15c-.38-.74-.86-1-1.39-.7A.63.63,0,0,0,3.34,3a1.43,1.43,0,0,0,.3.82l.1.15C4.22,4.68,4.65,4.9,5.08,4.67Z"/><path class="cls-2" d="M6.87,4.32C6.44,3.25,6,2.2,5.51,1.14,5.87,1,6.24.88,6.62.77c.78-.24,1.27,0,1.43.65a.89.89,0,0,1-.31,1v0a16.67,16.67,0,0,1,1.09,1.3l-.52.12c-.32-.39-.66-.78-1-1.15l-.44.14.48,1.3ZM6.7,2.45l.4-.13a.63.63,0,0,0,.38-.26.69.69,0,0,0,0-.47.49.49,0,0,0-.26-.36.71.71,0,0,0-.5,0l-.43.15Z"/><path class="cls-2" d="M9.81,3.57c-.15-1-.3-1.94-.47-2.91-.32,0-.64.1-1,.16,0-.16-.07-.31-.11-.47A17.74,17.74,0,0,1,10.88,0l0,.49c-.32,0-.64,0-1,.07.12,1,.24,1.95.35,2.93Z"/><path class="cls-2" d="M11.52,3.43c0-1.14,0-2.28-.07-3.43A19.23,19.23,0,0,1,13.6.09l-.06.49A14.5,14.5,0,0,0,12.07.49c0,.34,0,.68,0,1,.36,0,.71,0,1.07.06,0,.15,0,.31,0,.47C12.73,2,12.39,2,12,2l0,1.44Z"/><path class="cls-2" d="M14.75,3.81a1.21,1.21,0,0,1-.81-.6,2.14,2.14,0,0,1-.15-1.31V1.79A1.7,1.7,0,0,1,14.41.6,1.4,1.4,0,0,1,15.64.37a1.33,1.33,0,0,1,1,.7,1.71,1.71,0,0,1,0,1.33l0,.1a2.24,2.24,0,0,1-.76,1.1A1.25,1.25,0,0,1,14.75,3.81Zm.13-.46a.65.65,0,0,0,.62-.18,1.72,1.72,0,0,0,.44-.77L16,2.23c.25-.78.1-1.27-.5-1.4a.75.75,0,0,0-.71.18,1.39,1.39,0,0,0-.37.8l0,.17C14.22,2.8,14.4,3.24,14.88,3.35Z"/><path class="cls-2" d="M16.46,4.24c.41-1.07.84-2.14,1.29-3.2l.59.22Q17.7,2.61,17.11,4c.37.15.73.31,1.09.49L18,4.88A14.23,14.23,0,0,0,16.46,4.24Z"/><path class="cls-2" d="M18.38,5.1c.58-1,1.18-2,1.81-3l.54.32q-1,1.43-1.92,2.88Z"/><path class="cls-2" d="M20.2,6.37a1.16,1.16,0,0,1-.46-.89,2.1,2.1,0,0,1,.47-1.24l.06-.09a1.85,1.85,0,0,1,1.11-.79,1.43,1.43,0,0,1,1.2.33,1.23,1.23,0,0,1,.52,1,1.79,1.79,0,0,1-.66,1.17L22.36,6a2.24,2.24,0,0,1-1.17.65A1.2,1.2,0,0,1,20.2,6.37ZM20.52,6a.62.62,0,0,0,.63.11,1.76,1.76,0,0,0,.74-.5L22,5.5c.59-.59.68-1.09.22-1.47a.72.72,0,0,0-.71-.15,1.55,1.55,0,0,0-.72.55l-.11.14C20.18,5.23,20.14,5.71,20.52,6Z"/></g></g></svg>